<svg width="52" height="52" viewBox="0 0 52 52" fill="none" xmlns="http://www.w3.org/2000/svg">
<g clip-path="url(#clip0_27_126)">
<path d="M32.4999 4.33337C33.0746 4.33337 33.6257 4.56165 34.032 4.96798C34.4383 5.3743 34.6666 5.9254 34.6666 6.50004V8.66671H36.8332C38.5572 8.66671 40.2105 9.35153 41.4294 10.5705C42.6484 11.7895 43.3332 13.4428 43.3332 15.1667V17.3334H45.4999C46.0746 17.3334 46.6257 17.5616 47.032 17.968C47.4383 18.3743 47.6666 18.9254 47.6666 19.5C47.6666 20.0747 47.4383 20.6258 47.032 21.0321C46.6257 21.4384 46.0746 21.6667 45.4999 21.6667H43.3332V30.3334H45.4999C46.0746 30.3334 46.6257 30.5616 47.032 30.968C47.4383 31.3743 47.6666 31.9254 47.6666 32.5C47.6666 33.0747 47.4383 33.6258 47.032 34.0321C46.6257 34.4384 46.0746 34.6667 45.4999 34.6667H43.3332V36.8334C43.3332 38.5573 42.6484 40.2106 41.4294 41.4296C40.2105 42.6486 38.5572 43.3334 36.8332 43.3334H34.6666V45.5C34.6666 46.0747 34.4383 46.6258 34.032 47.0321C33.6257 47.4384 33.0746 47.6667 32.4999 47.6667C31.9253 47.6667 31.3742 47.4384 30.9679 47.0321C30.5615 46.6258 30.3333 46.0747 30.3333 45.5V43.3334H21.6666V45.5C21.6666 46.0747 21.4383 46.6258 21.032 47.0321C20.6257 47.4384 20.0746 47.6667 19.4999 47.6667C18.9253 47.6667 18.3742 47.4384 17.9679 47.0321C17.5615 46.6258 17.3333 46.0747 17.3333 45.5V43.3334H15.1666C13.4427 43.3334 11.7894 42.6486 10.5704 41.4296C9.3514 40.2106 8.66658 38.5573 8.66658 36.8334V34.6667H6.49992C5.92528 34.6667 5.37418 34.4384 4.96785 34.0321C4.56153 33.6258 4.33325 33.0747 4.33325 32.5C4.33325 31.9254 4.56153 31.3743 4.96785 30.968C5.37418 30.5616 5.92528 30.3334 6.49992 30.3334H8.66658V21.6667H6.49992C5.92528 21.6667 5.37418 21.4384 4.96785 21.0321C4.56153 20.6258 4.33325 20.0747 4.33325 19.5C4.33325 18.9254 4.56153 18.3743 4.96785 17.968C5.37418 17.5616 5.92528 17.3334 6.49992 17.3334H8.66658V15.1667C8.66658 13.4428 9.3514 11.7895 10.5704 10.5705C11.7894 9.35153 13.4427 8.66671 15.1666 8.66671H17.3333V6.50004C17.3333 5.9254 17.5615 5.3743 17.9679 4.96798C18.3742 4.56165 18.9253 4.33337 19.4999 4.33337C20.0746 4.33337 20.6257 4.56165 21.032 4.96798C21.4383 5.3743 21.6666 5.9254 21.6666 6.50004V8.66671H30.3333V6.50004C30.3333 5.9254 30.5615 5.3743 30.9679 4.96798C31.3742 4.56165 31.9253 4.33337 32.4999 4.33337ZM30.3333 17.3334H21.6666C20.5173 17.3334 19.4151 17.7899 18.6025 18.6026C17.7898 19.4152 17.3333 20.5174 17.3333 21.6667V30.3334C17.3333 31.4826 17.7898 32.5848 18.6025 33.3975C19.4151 34.2102 20.5173 34.6667 21.6666 34.6667H30.3333C31.4825 34.6667 32.5847 34.2102 33.3974 33.3975C34.21 32.5848 34.6666 31.4826 34.6666 30.3334V21.6667C34.6666 20.5174 34.21 19.4152 33.3974 18.6026C32.5847 17.7899 31.4825 17.3334 30.3333 17.3334ZM30.3333 21.6667V30.3334H21.6666V21.6667H30.3333Z" fill="#FFD600"/>
</g>
<defs>
<clipPath id="clip0_27_126">
<rect width="52" height="52" fill="white"/>
</clipPath>
</defs>
</svg>
