<svg width="77" height="77" viewBox="0 0 77 77" fill="none" xmlns="http://www.w3.org/2000/svg">
<path d="M17.2595 54.5184C15.7929 54.5184 14.5377 53.9967 13.4942 52.9531C12.4506 51.9095 11.928 50.6535 11.9262 49.1851V19.8518C11.9262 18.3851 12.4489 17.13 13.4942 16.0864C14.5395 15.0429 15.7946 14.5202 17.2595 14.5184H59.9262C61.3929 14.5184 62.6489 15.0411 63.6942 16.0864C64.7395 17.1318 65.2613 18.3869 65.2595 19.8518V49.1851C65.2595 50.6518 64.7377 51.9078 63.6942 52.9531C62.6506 53.9984 61.3946 54.5202 59.9262 54.5184H17.2595ZM9.25952 62.5184V57.1851H67.9262V62.5184H9.25952Z" fill="#00E5FF"/>
</svg>
