<svg width="52" height="52" viewBox="0 0 52 52" fill="none" xmlns="http://www.w3.org/2000/svg">
<g clip-path="url(#clip0_27_80)">
<path d="M29.25 6.5C29.25 5.63805 28.9076 4.8114 28.2981 4.2019C27.6886 3.59241 26.862 3.25 26 3.25C25.138 3.25 24.3114 3.59241 23.7019 4.2019C23.0924 4.8114 22.75 5.63805 22.75 6.5V11.6545L19.63 8.5345C19.3301 8.22424 18.9713 7.97682 18.5747 7.80668C18.1781 7.63654 17.7516 7.54708 17.3201 7.54354C16.8886 7.53999 16.4606 7.62243 16.0613 7.78603C15.662 7.94963 15.2992 8.19112 14.9942 8.49642C14.6892 8.80171 14.4481 9.16469 14.2848 9.56418C14.1216 9.96367 14.0396 10.3917 14.0435 10.8232C14.0475 11.2547 14.1373 11.6811 14.3078 12.0776C14.4784 12.474 14.7261 12.8325 15.0367 13.1322L22.75 20.8455V22.75H20.8455L13.1322 15.0367C12.8325 14.7261 12.474 14.4784 12.0776 14.3078C11.6811 14.1373 11.2547 14.0475 10.8232 14.0435C10.3917 14.0396 9.96367 14.1216 9.56418 14.2848C9.16469 14.4481 8.80171 14.6892 8.49642 14.9942C8.19112 15.2992 7.94963 15.662 7.78603 16.0613C7.62243 16.4606 7.53999 16.8886 7.54354 17.3201C7.54708 17.7516 7.63654 18.1781 7.80668 18.5747C7.97682 18.9713 8.22424 19.3301 8.5345 19.63L11.6545 22.75H6.5C5.63805 22.75 4.8114 23.0924 4.2019 23.7019C3.59241 24.3114 3.25 25.138 3.25 26C3.25 26.862 3.59241 27.6886 4.2019 28.2981C4.8114 28.9076 5.63805 29.25 6.5 29.25H11.6545L8.5345 32.37C7.94277 32.9832 7.61557 33.8043 7.62337 34.6565C7.63118 35.5086 7.97336 36.3236 8.57622 36.9259C9.17909 37.5282 9.99439 37.8696 10.8465 37.8766C11.6987 37.8836 12.5195 37.5556 13.1322 36.9633L20.8455 29.25H22.75V31.1545L15.0367 38.8678C14.4444 39.4805 14.1164 40.3013 14.1234 41.1535C14.1304 42.0056 14.4718 42.8209 15.0741 43.4238C15.6764 44.0266 16.4914 44.3688 17.3435 44.3766C18.1957 44.3844 19.0168 44.0572 19.63 43.4655L22.75 40.3455V45.5C22.75 46.362 23.0924 47.1886 23.7019 47.7981C24.3114 48.4076 25.138 48.75 26 48.75C26.862 48.75 27.6886 48.4076 28.2981 47.7981C28.9076 47.1886 29.25 46.362 29.25 45.5V40.3455L32.37 43.4655C32.9832 44.0572 33.8043 44.3844 34.6565 44.3766C35.5086 44.3688 36.3236 44.0266 36.9259 43.4238C37.5282 42.8209 37.8696 42.0056 37.8766 41.1535C37.8836 40.3013 37.5556 39.4805 36.9633 38.8678L29.25 31.1545V29.25H31.1545L38.8678 36.9633C39.4805 37.5556 40.3013 37.8836 41.1535 37.8766C42.0056 37.8696 42.8209 37.5282 43.4238 36.9259C44.0266 36.3236 44.3688 35.5086 44.3766 34.6565C44.3844 33.8043 44.0572 32.9832 43.4655 32.37L40.3455 29.25H45.5C46.362 29.25 47.1886 28.9076 47.7981 28.2981C48.4076 27.6886 48.75 26.862 48.75 26C48.75 25.138 48.4076 24.3114 47.7981 23.7019C47.1886 23.0924 46.362 22.75 45.5 22.75H40.3455L43.4655 19.63C44.0572 19.0168 44.3844 18.1957 44.3766 17.3435C44.3688 16.4914 44.0266 15.6764 43.4238 15.0741C42.8209 14.4718 42.0056 14.1304 41.1535 14.1234C40.3013 14.1164 39.4805 14.4444 38.8678 15.0367L31.1545 22.75H29.25V20.8455L36.9633 13.1322C37.5556 12.5195 37.8836 11.6987 37.8766 10.8465C37.8696 9.99439 37.5282 9.17909 36.9259 8.57622C36.3236 7.97336 35.5086 7.63118 34.6565 7.62337C33.8043 7.61557 32.9832 7.94277 32.37 8.5345L29.25 11.6567V6.5Z" fill="#00E5FF"/>
</g>
<defs>
<clipPath id="clip0_27_80">
<rect width="52" height="52" fill="white"/>
</clipPath>
</defs>
</svg>
