<svg width="77" height="77" viewBox="0 0 77 77" fill="none" xmlns="http://www.w3.org/2000/svg">
<path d="M38.5925 49.1851C36.4707 49.1851 34.4359 48.3422 32.9356 46.842C31.4353 45.3417 30.5925 43.3068 30.5925 41.1851C30.5925 38.1984 32.2191 35.5851 34.5925 34.2251L60.4858 19.2384L45.7391 44.7851C44.4058 47.3984 41.7125 49.1851 38.5925 49.1851ZM38.5925 14.5184C43.4191 14.5184 47.9258 15.8518 51.8458 18.0384L46.2458 21.2651C43.9258 20.3584 41.2591 19.8518 38.5925 19.8518C32.9345 19.8518 27.5083 22.0994 23.5075 26.1002C19.5067 30.1009 17.2591 35.5271 17.2591 41.1851C17.2591 47.0784 19.6325 52.4118 23.4991 56.2518H23.5258C24.5658 57.2918 24.5658 58.9718 23.5258 60.0118C22.4858 61.0518 20.7791 61.0518 19.7391 60.0384C17.2592 57.5654 15.2923 54.6268 13.9514 51.3913C12.6106 48.1559 11.9222 44.6874 11.9258 41.1851C11.9258 34.1127 14.7353 27.3299 19.7363 22.3289C24.7373 17.3279 31.52 14.5184 38.5925 14.5184ZM65.2591 41.1851C65.2591 48.5451 62.2725 55.2118 57.4458 60.0384C56.4058 61.0518 54.7258 61.0518 53.6858 60.0118C53.4386 59.7651 53.2425 59.472 53.1086 59.1494C52.9748 58.8268 52.9059 58.481 52.9059 58.1318C52.9059 57.7825 52.9748 57.4367 53.1086 57.1141C53.2425 56.7915 53.4386 56.4985 53.6858 56.2518C55.669 54.2767 57.2415 51.9284 58.3125 49.3424C59.3835 46.7565 59.9318 43.9841 59.9258 41.1851C59.9258 38.5184 59.4191 35.8518 58.4858 33.4518L61.7125 27.8518C63.9258 31.8518 65.2591 36.3318 65.2591 41.1851Z" fill="#E53935"/>
</svg>
