<svg width="52" height="52" viewBox="0 0 52 52" fill="none" xmlns="http://www.w3.org/2000/svg">
<g clip-path="url(#clip0_27_124)">
<g clip-path="url(#clip1_27_124)">
<path fill-rule="evenodd" clip-rule="evenodd" d="M0.0557137 0.239738C-0.0886383 0.963733 0.0602951 1.71542 0.469799 2.32968C0.879303 2.94394 1.51589 3.37053 2.23971 3.51574L20.8111 7.23002C21.5238 7.34721 22.2541 7.18304 22.848 6.77215C23.442 6.36125 23.8531 5.73574 23.9948 5.02755C24.1364 4.31935 23.9975 3.58383 23.6073 2.9761C23.217 2.36837 22.606 1.93595 21.9031 1.77002L3.33171 -1.94426C2.60772 -2.08862 1.85603 -1.93968 1.24177 -1.53018C0.62751 -1.12067 0.200924 -0.484086 0.0557137 0.239738ZM36.2143 10.0715H35.2857C34.5469 10.0715 33.8383 9.77796 33.3159 9.25554C32.7935 8.73311 32.5 8.02456 32.5 7.28574C32.5 6.54692 32.7935 5.83836 33.3159 5.31594C33.8383 4.79352 34.5469 4.50002 35.2857 4.50002H42.7143C43.4531 4.50002 44.1617 4.79352 44.6841 5.31594C45.2065 5.83836 45.5 6.54692 45.5 7.28574C45.5 8.02456 45.2065 8.73311 44.6841 9.25554C44.1617 9.77796 43.4531 10.0715 42.7143 10.0715H41.7857V14.7143H46.4286C47.9062 14.7143 49.3233 15.3013 50.3682 16.3461C51.413 17.391 52 18.8081 52 20.2857V44.4286C52 45.9062 51.413 47.3233 50.3682 48.3682C49.3233 49.413 47.9062 50 46.4286 50H31.5714C30.0938 50 28.6767 49.413 27.6318 48.3682C26.587 47.3233 26 45.9062 26 44.4286V20.2857C26 18.8081 26.587 17.391 27.6318 16.3461C28.6767 15.3013 30.0938 14.7143 31.5714 14.7143H36.2143V10.0715ZM20.8111 9.1986C21.5238 9.08141 22.2541 9.24557 22.848 9.65647C23.442 10.0674 23.8531 10.6929 23.9948 11.4011C24.1364 12.1093 23.9975 12.8448 23.6073 13.4525C23.217 14.0602 22.606 14.4927 21.9031 14.6586L3.33171 18.3729C2.96782 18.4588 2.59036 18.4705 2.22182 18.4075C1.85329 18.3444 1.50122 18.2078 1.1866 18.0058C0.871975 17.8038 0.601238 17.5405 0.390526 17.2316C0.17981 16.9228 0.0334282 16.5746 -0.0398979 16.208C-0.113224 15.8414 -0.111996 15.4637 -0.0362816 15.0976C0.0394325 14.7314 0.188076 14.3843 0.400795 14.0768C0.613518 13.7693 0.88596 13.5078 1.20189 13.3078C1.51782 13.1079 1.87077 12.9735 2.23971 12.9129L20.8111 9.1986Z" fill="#00E5FF"/>
</g>
</g>
<defs>
<clipPath id="clip0_27_124">
<rect width="52" height="52" fill="white" transform="matrix(-1 0 0 1 52 0)"/>
</clipPath>
<clipPath id="clip1_27_124">
<rect width="52" height="52" fill="white" transform="matrix(-1 0 0 1 52 -2)"/>
</clipPath>
</defs>
</svg>
