<svg width="52" height="52" viewBox="0 0 52 52" fill="none" xmlns="http://www.w3.org/2000/svg">
<g clip-path="url(#clip0_27_128)">
<path d="M16.4623 5.07649C18.6738 4.69574 20.9445 4.85457 23.0814 5.53948C25.2183 6.22438 27.1583 7.41511 28.7364 9.01044C30.3145 10.6058 31.4841 12.5586 32.1457 14.7028C32.8074 16.847 32.9416 19.1193 32.5368 21.3265C32.266 22.8042 32.5542 24.0998 33.3147 24.8582L45.3743 36.92C46.4494 38.0504 47.0401 39.5562 47.0206 41.1161C47.001 42.676 46.3726 44.1664 45.2695 45.2695C44.1664 46.3726 42.676 47.001 41.1161 47.0206C39.5562 47.0401 38.0504 46.4494 36.92 45.3743L24.8603 33.3147C24.102 32.5563 22.8042 32.266 21.3287 32.5347C19.1218 32.9388 16.8499 32.8042 14.7061 32.1425C12.5624 31.4808 10.61 30.3114 9.0148 28.7336C7.41965 27.1559 6.22886 25.2165 5.5436 23.0801C4.85833 20.9437 4.69884 18.6735 5.07866 16.4623C5.18041 15.8196 5.47335 15.2225 5.91933 14.7487C6.36531 14.2749 6.94364 13.9464 7.57899 13.806C8.74899 13.5395 10.0338 13.8927 10.959 14.8178L16.4732 20.3298C16.5526 20.4056 16.6581 20.4479 16.7678 20.4479C16.8776 20.4479 16.9831 20.4056 17.0625 20.3298L20.3298 17.0625C20.4056 16.9831 20.4479 16.8776 20.4479 16.7678C20.4479 16.6581 20.4056 16.5526 20.3298 16.4732L14.82 10.959C14.3803 10.5264 14.057 9.98978 13.8801 9.39889C13.7032 8.808 13.6785 8.182 13.8082 7.57899C14.0833 6.36565 15.0237 5.32565 16.4623 5.07649Z" fill="#00E5FF"/>
</g>
<defs>
<clipPath id="clip0_27_128">
<rect width="52" height="52" fill="white"/>
</clipPath>
</defs>
</svg>
